<?xml version="1.0" standalone="no"?>
<!DOCTYPE svg PUBLIC "-//W3C//DTD SVG 20010904//EN"
 "http://www.w3.org/TR/2001/REC-SVG-20010904/DTD/svg10.dtd">
<svg version="1.0" xmlns="http://www.w3.org/2000/svg"
 width="600.000000pt" height="600.000000pt" viewBox="0 0 600.000000 600.000000"
 preserveAspectRatio="xMidYMid meet">
<metadata>
Created by potrace 1.11, written by Peter Selinger 2001-2013
</metadata>
<g transform="translate(0.000000,600.000000) scale(0.100000,-0.100000)"
fill="#000000" stroke="none">
<path d="M2585 4624 c-234 -51 -379 -236 -362 -461 7 -97 39 -162 115 -237 95
-94 296 -224 327 -212 33 12 10 36 -91 97 -127 76 -229 167 -269 240 -27 49
-30 62 -30 149 0 83 3 102 28 151 43 88 98 143 185 186 73 37 80 38 182 38 98
0 110 -2 170 -32 36 -18 87 -53 113 -80 54 -54 106 -150 114 -212 l6 -41 -76
0 -75 0 -6 33 c-18 98 -111 176 -220 184 -249 20 -374 -248 -189 -405 70 -60
152 -107 165 -94 18 18 2 38 -71 87 -93 61 -123 101 -129 169 -9 105 65 186
178 194 77 6 120 -10 169 -63 37 -40 44 -59 54 -135 2 -12 25 -16 125 -18
l122 -3 0 51 c0 58 -30 154 -64 208 -32 50 -123 135 -172 160 -98 50 -205 66
-299 46z"/>
<path d="M117 4603 c-4 -3 -7 -174 -7 -380 0 -366 0 -373 20 -373 11 0 20 6
20 13 0 6 1 165 3 352 l2 340 67 3 68 3 2 -333 3 -333 247 -3 248 -2 2 332 3
333 67 3 68 3 2 -353 c3 -336 4 -353 22 -356 10 -2 22 2 27 10 5 7 9 171 9
364 0 267 -3 354 -13 367 -10 15 -27 17 -117 15 l-105 -3 -3 -332 -2 -333
-205 0 -205 0 0 329 c0 291 -2 330 -16 335 -21 8 -199 8 -207 -1z"/>
<path d="M4315 4600 c-10 -16 -8 -211 2 -221 5 -5 75 -10 156 -11 l147 -3 3
-675 2 -675 48 -3 c42 -3 47 -1 47 18 0 13 -8 24 -20 27 -19 5 -20 14 -21 157
-1 83 -5 387 -8 676 l-6 525 -152 3 -153 3 0 69 0 70 180 0 c170 0 180 1 180
19 0 10 -7 22 -16 25 -28 11 -382 7 -389 -4z"/>
<path d="M4781 4601 c-8 -5 -11 -16 -8 -25 5 -13 33 -16 184 -18 l178 -3 0
-65 0 -65 -155 -5 -155 -5 -3 -677 -2 -677 -23 -3 c-14 -2 -23 -11 -25 -26 -3
-22 -1 -23 45 -20 l48 3 3 677 2 677 153 3 152 3 0 115 0 115 -190 2 c-104 2
-196 -1 -204 -6z"/>
<path d="M1177 4594 c-4 -4 -7 -89 -7 -189 0 -148 3 -185 15 -195 30 -25 35 0
35 171 l0 169 70 0 69 0 3 -597 3 -598 29 -52 c30 -54 77 -94 134 -114 72 -25
85 20 15 51 -59 26 -91 54 -112 100 -14 31 -17 111 -21 645 l-5 610 -111 3
c-60 1 -113 -1 -117 -4z"/>
<path d="M1817 4594 c-4 -4 -7 -275 -7 -603 0 -384 -4 -609 -11 -634 -13 -47
-66 -101 -116 -117 -48 -15 -55 -22 -47 -43 8 -23 41 -21 89 4 58 31 85 58
111 114 l24 50 0 593 0 592 70 0 70 0 0 -164 c0 -135 3 -166 15 -176 31 -26
35 3 33 196 l-3 189 -111 3 c-60 1 -113 -1 -117 -4z"/>
<path d="M3295 4578 c-3 -13 -4 -183 -3 -378 l3 -355 23 -3 22 -3 0 355 0 356
390 0 390 0 0 -70 0 -71 -310 1 c-171 1 -315 -2 -320 -5 -15 -9 -13 -498 2
-513 8 -8 60 -12 169 -12 148 0 157 -1 162 -20 3 -12 14 -20 26 -20 18 0 21 6
21 44 0 31 -5 46 -16 50 -9 3 -85 6 -170 6 l-154 0 2 213 3 212 318 3 317 2 0
115 0 115 -435 0 -435 0 -5 -22z"/>
<path d="M1177 4154 c-12 -12 -8 -767 4 -826 22 -103 95 -210 181 -264 128
-81 327 -86 472 -12 52 26 130 100 160 152 54 92 56 118 54 551 -3 392 -3 400
-23 400 -20 0 -20 -8 -25 -415 l-5 -415 -26 -55 c-48 -102 -117 -162 -230
-200 -53 -19 -79 -21 -154 -17 -177 9 -277 83 -343 251 -13 34 -17 108 -22
446 -4 355 -7 405 -20 408 -9 1 -19 0 -23 -4z"/>
<path d="M2714 3915 c-8 -21 0 -30 64 -65 86 -49 185 -125 241 -186 73 -80
103 -185 81 -290 -27 -128 -100 -223 -218 -281 -73 -37 -80 -38 -181 -38 -98
0 -111 2 -173 32 -37 17 -87 50 -112 74 -52 47 -112 159 -122 227 l-7 42 76 0
76 0 10 -38 c30 -110 134 -190 248 -192 92 -1 195 63 237 147 21 42 21 144 0
189 -31 66 -175 183 -209 170 -29 -11 -15 -36 43 -75 101 -69 132 -114 132
-192 0 -121 -123 -211 -248 -179 -26 6 -57 18 -69 25 -38 25 -76 84 -88 138
l-11 52 -124 3 -123 3 5 -76 c10 -150 116 -298 265 -368 58 -27 82 -32 164
-35 157 -7 268 36 364 140 118 127 152 288 94 443 -36 95 -157 210 -326 309
-68 40 -81 43 -89 21z"/>
<path d="M110 3405 l0 -395 114 0 c110 0 115 1 122 22 4 12 5 167 3 343 l-4
320 200 0 200 0 0 -330 c0 -181 1 -336 3 -342 1 -10 33 -13 116 -13 95 0 115
3 120 16 9 24 7 747 -3 762 -5 8 -17 12 -27 10 -18 -3 -19 -20 -22 -371 l-2
-367 -65 0 -65 0 -2 308 c-2 280 -3 331 -7 370 -1 10 -54 12 -248 10 l-248 -3
-3 -342 -2 -343 -65 0 -65 0 -2 333 c-2 302 -3 356 -7 395 0 6 -10 12 -21 12
-20 0 -20 -7 -20 -395z"/>
<path d="M3296 3774 c-3 -9 -6 -181 -6 -383 0 -272 3 -370 12 -379 9 -9 119
-12 435 -12 407 0 423 1 433 19 14 28 13 183 -2 204 -12 15 -46 17 -323 19
l-310 3 0 225 0 225 168 3 168 2 -3 43 c-2 31 -8 43 -21 45 -12 3 -20 -4 -24
-17 -5 -20 -12 -21 -163 -21 -121 0 -160 -3 -169 -14 -8 -9 -11 -91 -9 -277
l3 -264 318 -3 317 -2 0 -70 0 -70 -387 2 -388 3 -3 368 c-2 352 -3 367 -21
367 -10 0 -22 -7 -25 -16z"/>
<path d="M5103 3483 c-7 -2 -13 -10 -13 -16 0 -20 446 -459 462 -456 8 2 113
99 232 215 174 170 216 216 216 237 l0 27 -203 0 c-204 0 -232 -5 -220 -36 4
-11 40 -14 177 -14 l171 0 -188 -187 -187 -188 -187 188 -188 187 173 0 c149
0 173 2 179 16 3 9 0 20 -8 25 -14 9 -394 11 -416 2z"/>
<path d="M2100 2595 c-19 -23 -8 -50 20 -50 19 0 26 6 28 24 5 35 -26 53 -48
26z"/>
<path d="M140 2260 c0 -333 0 -340 20 -340 19 0 20 8 22 307 l3 306 143 -266
c79 -147 149 -267 155 -267 7 0 77 123 157 272 l145 272 3 -312 c2 -268 4
-312 17 -312 13 0 15 46 15 341 l0 340 -26 -3 c-24 -3 -42 -32 -167 -267 -112
-209 -143 -260 -151 -248 -6 8 -72 128 -146 266 -126 235 -136 251 -162 251
l-28 0 0 -340z"/>
<path d="M2950 2260 c0 -333 0 -340 20 -340 19 0 20 7 20 160 l0 160 235 0
235 0 0 -160 c0 -153 1 -160 20 -160 20 0 20 7 20 340 0 333 0 340 -20 340
-19 0 -20 -7 -20 -160 l0 -160 -235 0 -235 0 0 160 c0 153 -1 160 -20 160 -20
0 -20 -7 -20 -340z"/>
<path d="M1157 2414 c-70 -22 -131 -86 -153 -160 -36 -125 12 -250 120 -307
32 -17 58 -22 121 -22 70 0 86 4 128 28 94 55 141 163 118 273 -31 155 -176
237 -334 188z m178 -43 c118 -53 159 -204 88 -320 -42 -66 -98 -93 -189 -89
-57 3 -79 9 -113 31 -78 52 -113 175 -75 265 46 110 180 163 289 113z"/>
<path d="M1544 2413 c4 -10 50 -125 103 -255 83 -203 101 -238 118 -238 18 0
35 35 118 238 122 301 113 272 89 272 -17 0 -35 -37 -112 -230 -51 -126 -93
-230 -95 -230 -2 0 -44 104 -95 230 -77 193 -95 230 -112 230 -15 0 -18 -5
-14 -17z"/>
<path d="M2100 2175 c0 -248 1 -255 20 -255 19 0 20 7 20 255 0 248 -1 255
-20 255 -19 0 -20 -7 -20 -255z"/>
<path d="M2462 2416 c-60 -20 -103 -56 -134 -112 -69 -130 -29 -286 92 -354
64 -36 184 -36 253 -1 57 30 74 48 60 62 -8 8 -23 3 -50 -15 -74 -49 -185 -51
-260 -5 -37 23 -77 86 -88 137 l-7 32 228 0 227 0 -6 54 c-13 125 -90 201
-214 211 -35 3 -75 -1 -101 -9z m171 -42 c60 -31 92 -72 108 -141 l7 -33 -209
0 -209 0 6 28 c15 61 71 130 124 151 40 16 137 13 173 -5z"/>
<path d="M3837 2414 c-70 -22 -131 -86 -153 -160 -36 -125 12 -250 120 -307
32 -17 58 -22 121 -22 70 0 86 4 128 28 94 55 141 163 118 273 -31 155 -176
237 -334 188z m178 -43 c118 -53 159 -204 88 -320 -42 -66 -98 -93 -189 -89
-57 3 -79 9 -113 31 -78 52 -113 175 -75 265 46 110 180 163 289 113z"/>
<path d="M4310 2248 c0 -156 3 -189 19 -224 33 -73 104 -110 195 -102 69 6
123 33 157 81 l29 40 0 -61 c0 -55 2 -62 20 -62 19 0 20 7 20 256 0 238 -1
255 -17 252 -16 -3 -19 -21 -23 -168 -6 -183 -11 -203 -74 -258 -40 -35 -86
-47 -153 -39 -54 6 -92 31 -115 78 -15 29 -18 62 -18 212 0 170 -1 177 -20
177 -19 0 -20 -7 -20 -182z"/>
<path d="M5005 2415 c-59 -21 -85 -56 -85 -115 0 -66 33 -99 132 -130 108 -34
143 -54 158 -91 16 -37 3 -69 -41 -102 -42 -31 -136 -26 -210 10 -48 24 -59
27 -64 14 -3 -8 0 -18 7 -23 108 -73 248 -76 317 -7 27 26 31 38 31 83 0 75
-36 108 -154 143 -113 34 -154 72 -140 130 15 57 136 83 221 48 28 -12 38 -13
44 -3 12 19 2 26 -53 43 -63 18 -111 19 -163 0z"/>
<path d="M5525 2421 c-143 -35 -221 -192 -169 -343 43 -127 197 -191 335 -139
65 25 99 55 81 73 -9 9 -16 8 -30 -5 -78 -71 -236 -63 -309 15 -25 27 -53 88
-53 117 0 20 7 21 223 23 l222 3 -3 44 c-10 151 -146 248 -297 212z m142 -42
c40 -15 82 -57 104 -104 36 -78 45 -75 -186 -75 -228 0 -219 -3 -190 68 21 49
52 81 100 103 45 21 129 25 172 8z"/>
</g>
</svg>
